<?xml version="1.0" encoding="UTF-8"?>
<svg width="32px" height="32px" viewBox="0 0 32 32" version="1.1" xmlns="http://www.w3.org/2000/svg" xmlns:xlink="http://www.w3.org/1999/xlink">
    <!-- Generator: Sketch 61.2 (89653) - https://sketch.com -->
    <title>logo</title>
    <desc>Created with Sketch.</desc>
    <defs>
        <polygon id="path-1" points="0.343648164 0.151785714 6.43714788 0.151785714 6.43714788 7.16571435 0.343648164 7.16571435"></polygon>
        <polygon id="path-3" points="0.082343816 0.241574968 6.17572464 0.241574968 6.17572464 7.25585721 0.082343816 7.25585721"></polygon>
    </defs>
    <g id="logo" stroke="none" stroke-width="1" fill="none" fill-rule="evenodd">
        <g id="分组" transform="translate(3.000000, 1.000000)">
            <path d="M16.8649275,17.2417857 C16.5069565,17.0360714 16.1348551,16.9528571 15.7848551,16.7582143 C15.2207246,16.4342857 15.0308696,15.7214286 15.3594928,15.1653571 L17.4645652,11.5714286 C18.1221739,10.4589286 17.7402899,9.03178571 16.612029,8.38357143 C15.4834058,7.73571429 13.9946377,8.08857143 13.3373913,9.20107143 L7.37398551,19.3821429 C6.71637681,20.4942857 7.09826087,21.9214286 8.22688406,22.5692857 C9.35514493,23.2175 10.821087,22.8514286 11.4783333,21.7392857 C11.479058,21.7382143 12.1381159,20.6128571 12.1381159,20.6128571 C12.4667391,20.0567857 13.1902899,19.8692857 13.7547826,20.1932143 C14.318913,20.5171429 14.5207246,21.2371429 14.1917391,21.7932143 L13.5573188,22.8764286 C12.2399275,25.1053571 9.33884058,25.8592857 7.07797101,24.5607143 C4.81673913,23.2621429 4.05188406,20.4028571 5.36891304,18.1739286 L8.90297101,12.1403571 C9.56057971,11.0282143 9.18086957,9.60214286 8.0526087,8.95392857 C6.92398551,8.30607143 5.47652174,8.6825 4.81891304,9.79464286 L1.28521739,15.8282143 C-1.34413043,20.2760714 0.191014493,25.9867857 4.70297101,28.5782143 C9.21528986,31.17 15.0116667,29.6692857 17.6406522,25.2217857 L18.5736232,23.6285714 C19.8910145,21.4 19.1261594,18.5403571 16.8649275,17.2417857" id="Fill-1" fill="#5A3CFF" fill-rule="nonzero"></path>
            <g id="编组" transform="translate(7.608696, 0.205464)">
                <g id="Fill-3-Clipped">
                    <mask id="mask-2" fill="white">
                        <use xlink:href="#path-1"></use>
                    </mask>
                    <g id="path-5"></g>
                    <path d="M1.51804348,6.85532143 C2.61876812,7.48103571 4.01695652,7.13032143 4.68543478,6.07675 L6.19086957,3.50067857 C6.73978261,2.41317857 6.34557971,1.07889286 5.2626087,0.462107143 C4.18,-0.153607143 2.80971014,0.176035714 2.12927536,1.18889286 L0.618405797,3.76210714 C0.027826087,4.85889286 0.417318841,6.22853571 1.51804348,6.85532143" id="Fill-3" fill="#5A3CFF" fill-rule="nonzero" mask="url(#mask-2)"></path>
                </g>
            </g>
            <g id="编组" transform="translate(18.478261, 9.848321)">
                <g id="Fill-5-Clipped">
                    <mask id="mask-4" fill="white">
                        <use xlink:href="#path-3"></use>
                    </mask>
                    <g id="path-7"></g>
                    <path d="M1.25673913,6.94546429 C2.35746377,7.57117857 3.75565217,7.22046429 4.42413043,6.16689286 L5.92956522,3.59046429 C6.47847826,2.50332143 6.08427536,1.16867857 5.00130435,0.551892857 C3.91869565,-0.0634642857 2.5484058,0.265821429 1.86797101,1.27903571 L0.357101449,3.85225 C-0.233478261,4.94903571 0.156014493,6.31867857 1.25673913,6.94546429" id="Fill-5" fill="#5A3CFF" fill-rule="nonzero" mask="url(#mask-4)"></path>
                </g>
            </g>
        </g>
    </g>
</svg>